<svg xmlns="http://www.w3.org/2000/svg"
 viewBox="0 0 657 627"
 preserveAspectRatio="xMidYMid meet">
<g transform="translate(0,627) scale(0.1,-0.1)"
fill="#0C2C89" stroke="none">
<path d="M3165 6056 c-11 -6 -39 -24 -62 -39 -24 -15 -45 -27 -49 -27 -3 0
-25 -12 -48 -27 -22 -16 -59 -37 -80 -48 -22 -11 -69 -39 -105 -62 -36 -24
-74 -43 -83 -43 -10 0 -18 -4 -18 -10 0 -5 -21 -21 -47 -34 -27 -13 -66 -36
-88 -52 -22 -15 -65 -40 -95 -57 -30 -16 -74 -42 -98 -58 -24 -16 -45 -29 -47
-29 -3 0 -50 -27 -105 -60 -55 -33 -103 -60 -105 -60 -2 0 -50 -27 -105 -60
-55 -33 -103 -60 -106 -60 -3 0 -20 -11 -37 -24 -18 -13 -52 -34 -77 -47 -25
-13 -52 -29 -60 -35 -8 -6 -42 -26 -75 -44 -33 -18 -67 -38 -75 -45 -8 -7 -33
-22 -55 -34 -102 -56 -164 -92 -289 -168 -75 -46 -139 -83 -144 -83 -5 0 -27
-13 -48 -28 -21 -16 -46 -31 -54 -35 -8 -4 -28 -16 -45 -26 -16 -11 -59 -36
-95 -56 -35 -20 -69 -43 -75 -50 -5 -7 -21 -15 -35 -19 -14 -3 -37 -16 -53
-28 l-27 -23 0 -1098 c0 -604 3 -1103 6 -1109 5 -7 11 -6 19 5 13 18 162 182
209 232 17 16 55 57 85 90 126 137 311 335 389 413 l82 84 0 458 0 458 28 26
c25 23 269 175 317 197 11 5 34 18 50 29 17 11 48 29 70 41 22 12 70 41 107
65 37 24 74 44 82 44 8 0 18 5 21 10 4 6 27 22 53 35 26 14 59 33 73 43 73 47
249 152 257 152 4 0 13 5 20 12 7 7 45 30 86 53 127 70 210 118 253 147 23 15
45 28 49 28 4 0 15 6 23 14 9 8 45 30 81 48 36 19 83 46 105 61 22 15 45 27
52 27 19 0 93 -41 93 -51 0 -5 8 -9 18 -9 9 -1 35 -12 57 -25 22 -14 49 -29
60 -35 11 -6 32 -18 46 -28 35 -23 306 -185 344 -206 17 -9 37 -20 45 -25 28
-17 242 -146 260 -156 10 -6 24 -16 31 -21 8 -6 43 -26 79 -45 36 -18 83 -45
105 -59 22 -15 47 -30 55 -34 25 -12 57 -31 74 -45 14 -12 22 -8 62 24 26 21
56 48 68 59 77 74 344 324 408 381 49 46 76 77 75 89 -2 20 -24 36 -112 81
-53 28 -62 33 -140 81 -27 18 -78 46 -112 64 -34 17 -67 37 -73 45 -6 7 -25
19 -43 26 -18 7 -61 31 -97 53 -36 23 -74 46 -85 53 -11 7 -51 31 -90 55 -38
23 -93 54 -121 68 -28 15 -64 36 -80 47 -16 11 -54 32 -84 47 -30 16 -77 43
-105 61 -90 57 -110 69 -150 93 -22 12 -55 29 -72 37 -18 9 -33 19 -33 23 0 4
-12 13 -27 20 -16 6 -50 25 -78 42 -27 16 -57 33 -65 37 -8 3 -33 18 -55 32
-22 14 -55 34 -74 44 -19 10 -52 31 -75 45 -87 56 -103 60 -141 38z"/>
<path d="M5984 5517 c-147 -149 -261 -257 -271 -257 -2 0 -19 -18 -39 -40 -20
-22 -40 -40 -45 -40 -5 0 -33 -24 -63 -52 -29 -29 -108 -105 -176 -168 -67
-63 -139 -131 -160 -150 -48 -46 -259 -242 -334 -311 -33 -30 -78 -72 -100
-94 -23 -22 -67 -63 -98 -92 -32 -28 -58 -55 -58 -60 0 -5 -10 -15 -21 -23
-12 -8 -34 -26 -49 -40 -15 -14 -53 -49 -86 -79 -32 -30 -100 -93 -150 -140
-50 -47 -149 -140 -220 -206 -71 -66 -156 -147 -190 -180 -33 -33 -90 -87
-125 -120 -78 -72 -454 -433 -550 -528 -38 -37 -74 -67 -80 -67 -13 0 -47 32
-425 405 -344 340 -475 465 -485 465 -9 0 -121 -116 -260 -269 -57 -63 -157
-169 -222 -235 -217 -223 -244 -251 -302 -316 -32 -36 -124 -133 -204 -215
-80 -83 -195 -205 -255 -270 -60 -66 -160 -173 -222 -237 l-113 -118 -3 -222
c-3 -260 -6 -253 92 -304 35 -19 71 -41 80 -48 8 -7 22 -16 30 -20 17 -8 37
-20 95 -57 22 -14 69 -42 105 -61 36 -19 79 -44 96 -54 17 -11 62 -37 100 -58
38 -22 76 -45 84 -51 8 -7 41 -27 72 -44 32 -17 73 -42 92 -54 19 -12 56 -34
83 -49 26 -16 55 -32 63 -37 8 -6 60 -36 115 -67 115 -65 256 -148 300 -176
90 -56 368 -218 375 -218 4 0 13 -7 20 -15 7 -8 19 -15 26 -15 8 0 43 -20 80
-45 36 -25 69 -45 73 -45 4 0 27 -14 51 -31 23 -17 73 -47 110 -67 61 -34 117
-65 279 -160 108 -62 94 -63 206 3 33 19 67 38 75 42 8 4 42 23 75 43 33 20
92 54 130 74 39 21 89 51 113 67 24 16 45 29 48 29 3 0 20 11 37 24 18 14 55
35 82 48 28 13 68 35 90 50 41 26 100 61 168 98 21 12 128 75 237 140 110 66
202 120 205 120 3 0 24 12 48 27 23 15 51 33 63 39 11 6 98 58 193 115 95 57
194 115 219 129 26 14 66 38 89 53 24 15 44 27 47 27 2 0 61 34 131 75 69 41
128 75 130 75 2 0 33 20 69 45 37 25 72 45 79 45 8 0 32 16 55 36 l42 36 0
1466 c0 807 -3 1477 -6 1489 -3 12 -17 29 -31 39 -24 15 -27 15 -51 -3 -14
-10 -30 -28 -36 -38 -6 -11 -29 -44 -52 -75 -22 -30 -50 -72 -62 -92 -13 -20
-26 -38 -30 -40 -4 -2 -42 -56 -86 -120 -43 -65 -82 -118 -87 -118 -4 0 -14
-11 -21 -24 -21 -39 -86 -133 -165 -238 -40 -54 -73 -101 -73 -105 0 -5 -14
-21 -30 -37 -17 -16 -30 -35 -30 -41 0 -7 -9 -20 -20 -30 -20 -18 -20 -31 -20
-800 l0 -782 -42 -30 c-61 -42 -264 -163 -275 -163 -6 0 -29 -14 -51 -30 -23
-17 -44 -30 -46 -30 -2 0 -35 -20 -73 -45 -37 -25 -72 -45 -77 -45 -4 0 -27
-12 -50 -27 -22 -16 -59 -37 -81 -48 -22 -11 -57 -32 -79 -47 -21 -16 -43 -28
-49 -28 -5 0 -28 -13 -51 -28 -22 -15 -61 -38 -86 -51 -25 -12 -79 -45 -120
-71 -41 -27 -95 -59 -120 -72 -25 -13 -47 -26 -50 -29 -9 -10 -127 -79 -136
-79 -4 0 -15 -6 -23 -14 -9 -7 -47 -30 -85 -50 -38 -20 -83 -46 -100 -59 -48
-35 -112 -67 -133 -67 -23 0 -87 34 -134 71 -20 16 -42 29 -48 29 -7 0 -43 20
-81 45 -39 25 -78 49 -87 52 -10 4 -50 26 -89 50 -39 24 -75 43 -79 43 -5 0
-23 11 -41 25 -18 14 -37 25 -41 25 -5 0 -40 20 -77 45 -38 25 -72 45 -75 45
-3 0 -37 20 -74 45 -38 25 -73 45 -79 45 -5 0 -24 11 -41 24 -18 13 -63 40
-102 61 -38 20 -77 44 -86 51 -8 8 -20 14 -25 14 -5 1 -58 32 -119 70 -60 38
-132 80 -160 95 -27 14 -63 34 -80 45 -16 11 -41 25 -55 31 -14 5 -39 21 -57
35 -17 13 -36 24 -42 24 -18 0 -12 54 7 71 28 26 441 457 591 618 l51 55 30
-29 c17 -16 30 -31 30 -35 0 -3 23 -30 51 -60 27 -30 69 -80 92 -110 22 -30
68 -84 102 -120 33 -36 78 -88 100 -115 22 -27 60 -73 85 -101 25 -29 59 -69
75 -90 17 -20 37 -44 46 -53 8 -9 46 -52 84 -96 37 -44 88 -104 114 -134 25
-30 53 -63 61 -75 8 -11 19 -26 25 -32 5 -6 33 -39 60 -73 28 -33 57 -61 65
-61 15 0 90 90 90 108 0 5 10 17 21 28 12 10 42 49 66 86 25 38 49 68 54 68 5
0 9 5 9 10 0 6 40 64 88 128 49 64 99 134 111 155 12 20 26 37 31 37 4 0 10 8
14 18 7 20 27 53 42 67 16 15 94 121 138 187 21 32 42 58 47 58 5 0 9 5 9 10
0 11 73 113 124 176 14 18 26 35 26 39 0 3 19 32 43 63 23 31 51 71 62 87 10
17 39 55 65 85 39 48 123 165 155 218 6 9 26 37 45 62 39 50 66 88 113 158 17
26 36 52 43 57 6 6 28 35 48 65 51 76 103 150 127 180 30 37 182 248 194 268
6 10 16 24 23 32 7 8 44 60 83 115 38 55 79 111 89 125 11 14 49 66 84 115 35
50 75 104 88 120 14 17 37 51 52 76 14 25 35 54 46 64 11 10 20 22 20 26 0 5
35 55 78 112 93 126 134 182 187 257 38 54 143 198 280 383 176 237 189 258
168 256 -5 0 -85 -78 -179 -172z m-482 -539 c-16 -24 -41 -53 -54 -66 -22 -20
-27 -21 -37 -8 -11 13 -7 21 25 52 45 42 88 74 92 69 2 -2 -10 -23 -26 -47z
m-104 -90 c7 -9 5 -20 -9 -36 -17 -22 -20 -23 -35 -7 -15 15 -15 17 2 35 23
23 28 24 42 8z m-49 -75 c3 -2 -3 -11 -12 -21 -9 -9 -34 -36 -56 -60 -22 -24
-45 -41 -51 -37 -17 11 -11 25 20 52 17 14 29 33 28 42 -2 11 4 16 18 15 17 0
20 4 16 20 -5 19 -4 20 14 6 10 -8 21 -16 23 -17z m-129 -150 c-1 -11 -26 -43
-34 -43 -11 0 -6 38 7 43 19 8 27 8 27 0z m-70 -27 c0 -13 5 -26 12 -28 7 -3
4 -12 -11 -27 -24 -24 -42 -22 -22 3 10 11 9 16 -5 24 -13 7 -14 13 -5 31 16
28 31 27 31 -3z m-160 -246 c0 -5 -9 -14 -20 -20 -15 -8 -20 -8 -20 3 0 8 3
17 7 20 10 10 33 8 33 -3z m-50 -54 c0 -2 -7 -9 -15 -16 -12 -10 -15 -10 -15
4 0 9 7 16 15 16 8 0 15 -2 15 -4z m-150 -47 c0 -5 -7 -9 -15 -9 -15 0 -20 12
-9 23 8 8 24 -1 24 -14z m100 -4 c0 -9 -15 -32 -34 -51 -19 -19 -42 -46 -52
-60 -11 -14 -35 -42 -54 -62 -20 -20 -46 -50 -58 -67 l-23 -30 5 43 c6 37 4
42 -14 42 -11 0 -20 5 -20 10 0 17 27 23 48 11 11 -6 22 -8 25 -5 8 9 -54 74
-70 74 -20 0 -15 18 7 25 25 8 44 -6 60 -45 7 -17 17 -30 22 -30 13 0 47 41
48 57 0 7 9 17 20 23 11 6 20 16 20 23 0 21 33 57 53 57 9 0 17 -7 17 -15z
m-500 -578 c0 -20 -43 -63 -48 -48 -2 7 6 23 19 37 26 28 29 29 29 11z m-60
-74 c-1 -13 -71 -85 -77 -79 -5 5 12 30 47 69 16 17 30 22 30 10z m-90 -108
c0 -8 -7 -15 -15 -15 -16 0 -20 12 -8 23 11 12 23 8 23 -8z"/>
<path d="M3110 4361 c-8 -5 -31 -12 -50 -15 -45 -9 -180 -66 -201 -86 -10 -8
-42 -35 -71 -60 -50 -41 -99 -102 -136 -170 -27 -48 -51 -151 -58 -246 l-7
-95 120 -117 c328 -321 446 -432 458 -432 7 0 76 62 153 138 76 75 211 205
298 289 l158 152 -2 93 c-4 145 -53 257 -81 186 -18 -46 -22 -53 -34 -74 -14
-25 -61 -65 -95 -83 -38 -20 -155 -15 -199 8 -49 26 -62 37 -99 86 -46 59 -61
136 -41 206 17 57 65 124 101 140 80 37 93 59 35 59 -16 0 -46 7 -66 15 -38
16 -158 20 -183 6z"/>
</g>
</svg>
